:FULLY-SPECIFIED
:FORCE-ALL-JOINTS-BE-3DOF
:DEGREES
476
root 3.65578 16.3245 -7.15395 5.14669 60.0201 -6.16209
lfemur -39.0979 -2.29745 -22.202
ltibia 49.2356 0 0
lfoot -20.2224 0.768587 0
ltoes 16.7383 0 0
rfemur -21.9744 2.48322 9.26699
rtibia 71.4545 0 0
rfoot 25.4658 16.2284 0
rtoes -26.9555 0 0
lowerback 2.15256 0.00278637 1.30055
upperback -0.369372 0.0616506 1.20897
thorax -1.58504 0.0265176 0.507522
lowerneck -8.45436 -6.91142 0.43978
upperneck 3.48841 -9.35293 1.4827
head 2.6215 -4.59184 -0.0545021
lclavicle 8.47303e-15 -2.67839e-14 0
lhumerus -48.8483 -27.2441 108.15
lradius 56.1883 0 0
lwrist 5.10024 0 0
lhand -9.24906 -6.06826 0
lfingers 7.12502 0 0
lthumb 16.707 23.2365 0
rclavicle 8.47303e-15 -2.67839e-14 0
rhumerus -55.0596 2.42029 -83.7174
rradius 62.4044 0 0
rwrist 14.9361 0 0
rhand -29.2584 -26.387 0
rfingers 7.12502 0 0
rthumb -2.60123 -776.354 0
477
root 3.7284 16.341 -7.10752 5.36091 61.1355 -5.63991
lfemur -38.3036 -3.32641 -22.4422
ltibia 48.7943 0 0
lfoot -20.3052 0.66072 0
ltoes 16.8988 0 0
rfemur -24.0532 2.3438 9.13449
rtibia 73.482 0 0
rfoot 24.3727 16.5457 0
rtoes -25.5466 0 0
lowerback 2.28222 -0.026124 1.04304
upperback -0.333723 0.0168387 1.11333
thorax -1.62127 0.00565704 0.555395
lowerneck -8.43167 -7.03543 0.323417
upperneck 3.57953 -9.51322 1.57741
head 2.66017 -4.66884 -0.0154352
lclavicle 2.13383e-14 -2.40529e-14 0
lhumerus -48.931 -27.5431 108.407
lradius 56.3398 0 0
lwrist 5.15338 0 0
lhand -8.22792 -5.51879 0
lfingers 7.12502 0 0
lthumb 17.6895 23.6965 0
rclavicle 2.13383e-14 -2.40529e-14 0
rhumerus -54.6057 3.09377 -84.35
rradius 62.5467 0 0
rwrist 15.5381 0 0
rhand -28.8569 -25.9167 0
rfingers 7.12502 0 0
rthumb -2.2135 -775.885 0
478
root 3.80105 16.3577 -7.06018 5.58243 62.2843 -5.15487
lfemur -37.5451 -4.27805 -22.6584
ltibia 48.3484 0 0
lfoot -20.4007 0.43122 0
ltoes 17.1114 0 0
rfemur -26.1724 2.07711 9.12468
rtibia 75.3358 0 0
rfoot 23.4633 16.0017 0
rtoes -24.1847 0 0
lowerback 2.38239 -0.0670515 0.841641
upperback -0.313105 -0.0432073 1.01801
thorax -1.65624 -0.0232782 0.572861
lowerneck -8.42721 -7.15698 0.211417
upperneck 3.70094 -9.67056 1.64886
head 2.71138 -4.74463 0.0142337
lclavicle 2.66093e-14 -2.13881e-14 0
lhumerus -49.007 -27.8487 108.682
lradius 56.4363 0 0
lwrist 5.19236 0 0
lhand -7.14001 -4.93309 0
lfingers 7.12502 0 0
lthumb 18.7357 24.18 0
rclavicle 2.66093e-14 -2.13881e-14 0
rhumerus -54.1328 3.76498 -85.0138
rradius 62.7406 0 0
rwrist 16.1534 0 0
rhand -28.3554 -25.5713 0
rfingers 7.12502 0 0
rthumb -1.72912 -775.542 0
479
root 3.87287 16.3742 -7.01231 5.82311 63.4446 -4.69551
lfemur -36.8268 -5.13397 -22.8617
ltibia 47.8998 0 0
lfoot -20.5119 0.0815997 0
ltoes 17.356 0 0
rfemur -28.3785 1.65188 9.22016
rtibia 77.0792 0 0
rfoot 22.6003 14.6231 0
rtoes -22.8422 0 0
lowerback 2.45686 -0.119182 0.687254
upperback -0.304571 -0.117854 0.919022
thorax -1.6891 -0.0598989 0.560905
lowerneck -8.43267 -7.27141 0.1062
upperneck 3.84746 -9.81924 1.70646
head 2.77239 -4.81613 0.0377132
lclavicle 2.68822e-14 -1.84505e-14 0
lhumerus -49.0755 -28.165 108.973
lradius 56.4807 0 0
lwrist 5.20811 0 0
lhand -5.99767 -4.30557 0
lfingers 7.12502 0 0
lthumb 19.8336 24.6927 0
rclavicle 2.68822e-14 -1.84505e-14 0
rhumerus -53.6097 4.42487 -85.7275
rradius 62.9519 0 0
rwrist 16.7992 0 0
rhand -27.7793 -25.3075 0
rfingers 7.12502 0 0
rthumb -1.17259 -775.283 0
